<svg width="28" height="27" viewBox="0 0 28 27" fill="none" xmlns="http://www.w3.org/2000/svg">
<path d="M0.600098 22.6984C0.600098 24.954 1.72758 26.1593 4.00128 26.1593H24.2834C26.707 26.1593 27.9126 24.9382 27.9126 22.5149V3.93197C27.9126 1.50549 26.707 0.287506 24.2834 0.287506H9.33884C6.93084 0.287506 5.70967 1.50866 5.70967 3.93197V9.92695H2.8894C1.45584 9.92695 0.603224 10.7305 0.603224 12.0909V22.6984H0.600098ZM6.94336 24.4447C7.24944 23.9353 7.39934 23.3184 7.39934 22.5908V4.0237C7.39934 2.695 8.10208 2.01481 9.36698 2.01481H24.2522C25.5327 2.01481 26.2198 2.695 26.2198 4.0237V22.42C26.2198 23.7487 25.5327 24.4447 24.2522 24.4447H6.94336ZM10.6038 7.34231H23.0466C23.4277 7.34231 23.7025 7.04809 23.7025 6.66213C23.7025 6.29199 23.4277 5.99778 23.0466 5.99778H10.6038C10.2071 5.99778 9.93226 6.29199 9.93226 6.66213C9.93226 7.05125 10.2071 7.34231 10.6038 7.34231ZM10.6038 11.6385H23.0466C23.4277 11.6385 23.7025 11.3601 23.7025 10.9899C23.7025 10.604 23.4277 10.3098 23.0466 10.3098H10.6038C10.2071 10.3098 9.93226 10.604 9.93226 10.9899C9.93226 11.3601 10.2071 11.6385 10.6038 11.6385ZM2.29289 22.6984V12.3946C2.29289 11.9327 2.58333 11.6385 3.05494 11.6385H5.70967V22.6984C5.70967 23.717 4.97885 24.4447 4.00128 24.4447C3.03933 24.4447 2.29289 23.6854 2.29289 22.6984ZM11.3346 20.3352H14.4297C15.3292 20.3352 15.8632 19.7784 15.8632 18.8831V16.0548C15.8632 15.1595 15.3292 14.6186 14.4297 14.6186H11.3346C10.4351 14.6186 9.90104 15.1595 9.90104 16.0548V18.8831C9.90416 19.7784 10.4351 20.3352 11.3346 20.3352ZM18.0308 15.9473H23.0341C23.4152 15.9473 23.7056 15.6689 23.7056 15.2987C23.7056 14.9128 23.4152 14.6186 23.0341 14.6186H18.0308C17.6497 14.6186 17.3593 14.9128 17.3593 15.2987C17.3593 15.6689 17.6497 15.9473 18.0308 15.9473ZM18.0308 20.3352H23.0341C23.4152 20.3352 23.7056 20.041 23.7056 19.6708C23.7056 19.3007 23.4152 18.9906 23.0341 18.9906H18.0308C17.6497 18.9906 17.3593 19.3007 17.3593 19.6708C17.3593 20.041 17.6497 20.3352 18.0308 20.3352Z" fill="#86BCCD"/>
</svg>
