<svg width="27" height="27" viewBox="0 0 27 27" fill="none" xmlns="http://www.w3.org/2000/svg">
<path d="M13.8791 26.3C20.9638 26.3 26.825 20.4518 26.825 13.3625C26.825 6.27312 20.9471 0.424988 13.8791 0.424988C6.79428 0.424988 0.949951 6.27312 0.949951 13.3625C0.949951 20.4518 6.811 26.3 13.8791 26.3ZM13.8791 17.6917C9.96054 17.6917 6.94141 19.1772 5.70099 20.763C3.93899 18.8025 2.87578 16.223 2.87578 13.3625C2.87578 7.25339 7.7572 2.33534 13.8791 2.33534C19.9842 2.33534 24.8991 7.25339 24.9158 13.3625C24.9158 16.2196 23.8392 18.8192 22.0739 20.7797C20.8335 19.1939 17.831 17.6917 13.8791 17.6917ZM13.8791 15.5204C16.3432 15.5371 18.2557 13.4294 18.2557 10.686C18.2557 8.10652 16.3298 5.96533 13.8791 5.96533C11.445 5.96533 9.48912 8.10652 9.50249 10.686C9.51921 13.4294 11.4317 15.487 13.8791 15.5204Z" fill="#C4C4C4"/>
</svg>
