<svg width="17" height="16" viewBox="0 0 17 16" fill="none" xmlns="http://www.w3.org/2000/svg">
<path d="M2.15664 2.2377C2.52316 1.84531 2.95833 1.53404 3.43729 1.32168C3.91626 1.10931 4.42964 1 4.94809 1C5.46654 1 5.97992 1.10931 6.45889 1.32168C6.93785 1.53404 7.37302 1.84531 7.73954 2.2377L8.50019 3.05166L9.26084 2.2377C10.0012 1.44548 11.0053 1.00041 12.0523 1.00041C13.0993 1.00041 14.1034 1.44548 14.8437 2.2377C15.5841 3.02993 16 4.10441 16 5.22479C16 6.34516 15.5841 7.41965 14.8437 8.21187L14.0831 9.02583L8.50019 15L2.91729 9.02583L2.15664 8.21187C1.78995 7.81967 1.49907 7.354 1.30061 6.84146C1.10215 6.32893 1 5.77958 1 5.22479C1 4.67 1.10215 4.12064 1.30061 3.60811C1.49907 3.09557 1.78995 2.6299 2.15664 2.2377Z" fill="#F3725F" stroke="#404041" stroke-width="2" stroke-linecap="round" stroke-linejoin="round"/>
</svg>
