<svg width="39" height="32" viewBox="0 0 39 32" fill="none" xmlns="http://www.w3.org/2000/svg">
<path d="M0 24.0767C0 27.4292 1.70085 29.1054 5.10249 29.1054H20.9098C20.3894 28.206 20.0082 27.2288 19.7705 26.2108H4.82378C3.58198 26.2108 2.88116 25.5526 2.88116 24.2525V9.2398C2.88116 7.94378 3.58198 7.28146 4.82378 7.28146H26.5369C27.7787 7.28146 28.5 7.93969 28.5 9.2398V13.6512C28.9795 13.5899 29.459 13.5531 29.9426 13.5531C30.4263 13.5531 30.9017 13.594 31.3853 13.6512V5.02874C31.3853 1.67624 29.7049 0 26.2828 0H5.11069C1.70905 0 0.00820473 1.67624 0.00820473 5.02874V24.0767H0ZM12.6476 12.9357H13.5697C14.1681 12.9357 14.3689 12.7354 14.3689 12.1589V11.239C14.3689 10.6585 14.1681 10.4623 13.5697 10.4623H12.6476C12.0656 10.4623 11.8689 10.6626 11.8689 11.239V12.1589C11.8689 12.7354 12.0656 12.9357 12.6476 12.9357ZM17.8115 12.9357H18.7336C19.3156 12.9357 19.5123 12.7354 19.5123 12.1589V11.239C19.5123 10.6585 19.3115 10.4623 18.7336 10.4623H17.8115C17.2131 10.4623 17.0123 10.6626 17.0123 11.239V12.1589C17.0082 12.7354 17.209 12.9357 17.8115 12.9357ZM22.9549 12.9357H23.8771C24.459 12.9357 24.6763 12.7354 24.6763 12.1589V11.239C24.6763 10.6585 24.4549 10.4623 23.8771 10.4623H22.9549C22.3566 10.4623 22.1558 10.6626 22.1558 11.239V12.1589C22.1517 12.7354 22.3525 12.9357 22.9549 12.9357ZM7.50412 17.9849H8.42625C9.02461 17.9849 9.22541 17.7846 9.22541 17.2081V16.2882C9.22541 15.7077 9.02461 15.5114 8.42625 15.5114H7.50412C6.92215 15.5114 6.70496 15.7118 6.70496 16.2882V17.2081C6.70496 17.7887 6.92215 17.9849 7.50412 17.9849ZM12.6476 17.9849H13.5697C14.1681 17.9849 14.3689 17.7846 14.3689 17.2081V16.2882C14.3689 15.7077 14.1681 15.5114 13.5697 15.5114H12.6476C12.0656 15.5114 11.8689 15.7118 11.8689 16.2882V17.2081C11.8689 17.7887 12.0656 17.9849 12.6476 17.9849ZM17.8115 17.9849H18.7336C19.3156 17.9849 19.5123 17.7846 19.5123 17.2081V16.2882C19.5123 15.7077 19.3115 15.5114 18.7336 15.5114H17.8115C17.2131 15.5114 17.0123 15.7118 17.0123 16.2882V17.2081C17.0082 17.7887 17.209 17.9849 17.8115 17.9849ZM29.9385 32C34.2992 32 38.0041 28.345 38.0041 23.954C38.0041 19.5426 34.3607 15.908 29.9385 15.908C25.5164 15.908 21.8729 19.5426 21.8729 23.954C21.8729 28.3859 25.5164 32 29.9385 32ZM26.2541 25.1928C25.6722 25.1928 25.2131 24.7349 25.2131 24.1748C25.2131 23.5942 25.6926 23.1363 26.2541 23.1363H28.9754V19.4036C28.9754 18.8435 29.4344 18.3856 30.0369 18.3856C30.5984 18.3856 31.0779 18.8435 31.0779 19.4036V24.1748C31.0779 24.7553 30.6189 25.1928 30.0369 25.1928H26.2541ZM7.50412 23.0382H8.42625C9.02461 23.0382 9.22541 22.8379 9.22541 22.2614V21.3415C9.22541 20.761 9.02461 20.5647 8.42625 20.5647H7.50412C6.92215 20.5647 6.70496 20.7651 6.70496 21.3415V22.2614C6.70496 22.8379 6.92215 23.0382 7.50412 23.0382ZM12.6476 23.0382H13.5697C14.1681 23.0382 14.3689 22.8379 14.3689 22.2614V21.3415C14.3689 20.761 14.1681 20.5647 13.5697 20.5647H12.6476C12.0656 20.5647 11.8689 20.7651 11.8689 21.3415V22.2614C11.8689 22.8379 12.0656 23.0382 12.6476 23.0382ZM17.8115 23.0382H18.7336C19.3156 23.0382 19.5123 22.8379 19.5123 22.2614V21.3415C19.5123 20.761 19.3115 20.5647 18.7336 20.5647H17.8115C17.2131 20.5647 17.0123 20.7651 17.0123 21.3415V22.2614C17.0082 22.8379 17.209 23.0382 17.8115 23.0382Z" fill="#85BCCE"/>
</svg>
