<svg width="197" height="64" viewBox="0 0 197 64" fill="none" xmlns="http://www.w3.org/2000/svg">
<path d="M17.2982 21.0381H12.6582V13.5126H4.67256V21.0341H0V2.01608H4.67256V9.42738H12.6582V2.01608H17.2982V21.0381Z" fill="#404041"/>
<path d="M35.5652 21.0381H31.0351V19.9036C29.932 20.8953 28.4586 21.4666 26.6189 21.4666C22.854 21.4666 19.6833 18.4303 19.6833 13.9166C19.6833 9.43143 22.854 6.36652 26.6189 6.36652C28.4586 6.36652 29.932 6.93379 31.0351 7.92958V6.79503H35.5652V21.0381ZM31.0351 13.9125C31.0351 11.725 29.3948 10.2232 27.551 10.2232C25.5688 10.2232 24.1239 11.7291 24.1239 13.9125C24.1239 16.1285 25.5688 17.6018 27.551 17.6018C29.3907 17.6018 31.0351 16.1245 31.0351 13.9125Z" fill="#404041"/>
<path d="M54.7357 13.9125C54.7357 18.4262 51.5651 21.4626 47.8002 21.4626C45.9604 21.4626 44.487 20.8953 43.384 19.8995V25.862H38.8499V6.78688H43.38V7.92143C44.483 6.92972 45.9564 6.35837 47.7961 6.35837C51.561 6.35837 54.7357 9.42736 54.7357 13.9125ZM50.287 13.9125C50.287 11.725 48.8421 10.2232 46.86 10.2232C45.0202 10.2232 43.3759 11.7291 43.3759 13.9125C43.3759 16.1285 45.0162 17.6018 46.86 17.6018C48.8462 17.6018 50.287 16.1245 50.287 13.9125Z" fill="#404041"/>
<path d="M72.97 13.9125C72.97 18.4262 69.7993 21.4626 66.0344 21.4626C64.1947 21.4626 62.7213 20.8953 61.6182 19.8995V25.862H57.0881V6.78688H61.6182V7.92143C62.7213 6.92972 64.1947 6.35837 66.0344 6.35837C69.7993 6.35837 72.97 9.42736 72.97 13.9125ZM68.5253 13.9125C68.5253 11.725 67.0804 10.2232 65.0982 10.2232C63.2585 10.2232 61.6142 11.7291 61.6142 13.9125C61.6142 16.1285 63.2545 17.6018 65.0982 17.6018C67.0804 17.6018 68.5253 16.1245 68.5253 13.9125Z" fill="#404041"/>
<path d="M89.2508 15.0756H78.8311C79.1974 16.7775 80.3615 17.8304 81.8878 17.8304C82.9338 17.8304 84.1508 17.5733 84.916 16.1816L88.9373 17.006C87.7204 20.0138 85.1439 21.4626 81.8878 21.4626C77.781 21.4626 74.3865 18.4262 74.3865 13.9125C74.3865 9.42737 77.7851 6.36246 81.9163 6.36246C85.9376 6.36246 89.1653 9.26005 89.2508 13.9125V15.0756ZM78.9166 12.2923H84.7776C84.3543 10.7578 83.2188 10.0477 81.9163 10.0477C80.6423 10.0518 79.3399 10.8435 78.9166 12.2923Z" fill="#404041"/>
<path d="M106.016 12.2923V21.0381H101.514V13.2595C101.514 11.5863 100.525 10.4476 99.0803 10.4476C97.2975 10.4476 96.1375 11.6679 96.1375 14.4226V21.0381H91.6074V6.78687H96.1375V8.14996C97.212 7.01541 98.7139 6.36243 100.497 6.36243C103.806 6.35835 106.016 8.71723 106.016 12.2923Z" fill="#404041"/>
<path d="M114.225 2.58334C114.225 4.03214 113.122 5.10955 111.592 5.10955C110.062 5.10955 108.987 4.03214 108.987 2.58334C108.987 1.19168 110.062 0 111.592 0C113.122 0 114.225 1.19168 114.225 2.58334ZM109.329 21.0381V6.78689H113.859V21.0381H109.329Z" fill="#404041"/>
<path d="M131.78 12.2923V21.0381H127.278V13.2595C127.278 11.5863 126.289 10.4476 124.844 10.4476C123.062 10.4476 121.902 11.6679 121.902 14.4226V21.0381H117.372V6.78687H121.902V8.14996C122.976 7.01541 124.478 6.36243 126.261 6.36243C129.574 6.35835 131.78 8.71723 131.78 12.2923Z" fill="#404041"/>
<path d="M149.506 19.6179C149.506 24.0173 146.164 26.4334 141.548 26.4334C138.292 26.4334 135.801 25.2988 134.413 22.9971L138.178 20.9524C139.253 22.2298 140.047 22.7114 141.52 22.7114C143.588 22.7114 145.061 21.4911 145.061 19.2465V18.8507C144.043 19.7322 142.627 20.2137 140.787 20.2137C137.079 20.2137 133.937 17.2631 133.937 13.231C133.937 9.28453 137.079 6.36246 140.787 6.36246C142.627 6.36246 144.043 6.84403 145.061 7.72555V6.78689H149.506V19.6179ZM145.061 13.231C145.061 11.3292 143.559 9.99465 141.748 9.99465C139.766 9.99465 138.349 11.3292 138.349 13.231C138.349 15.1328 139.766 16.4959 141.748 16.4959C143.563 16.4959 145.061 15.1328 145.061 13.231Z" fill="#404041"/>
<path d="M156.274 16.4101C156.474 17.6304 157.577 18.0834 158.794 18.0834C159.982 18.0834 160.634 17.5733 160.634 16.9489C160.634 16.4673 160.267 16.0959 159.217 15.9L156.327 15.3327C153.694 14.8512 152.192 13.4309 152.192 11.1863C152.192 8.26017 154.711 6.35837 158.309 6.35837C161.851 6.35837 164.199 7.97449 164.765 10.4476L160.629 11.272C160.487 10.3905 159.636 9.59877 158.252 9.59877C157.036 9.59877 156.637 10.1946 156.637 10.7048C156.637 11.1006 156.808 11.5006 157.711 11.6965L161.053 12.378C163.743 12.9453 164.989 14.5655 164.989 16.6632C164.989 19.8138 162.27 21.4626 158.533 21.4626C155.192 21.4626 152.334 20.2423 151.85 17.3162L156.274 16.4101Z" fill="#404041"/>
<path d="M179.1 2.58334C179.1 4.03214 177.997 5.10955 176.466 5.10955C174.936 5.10955 173.862 4.03214 173.862 2.58334C173.862 1.19168 174.936 0 176.466 0C177.993 0 179.1 1.19168 179.1 2.58334ZM174.199 21.0381V6.78689H178.73V21.0381H174.199Z" fill="#404041"/>
<path d="M196.655 12.2923V21.0381H192.153V13.2595C192.153 11.5863 191.164 10.4476 189.719 10.4476C187.936 10.4476 186.776 11.6679 186.776 14.4226V21.0381H182.246V6.78687H186.776V8.14996C187.851 7.01541 189.353 6.36243 191.135 6.36243C194.444 6.35835 196.655 8.71723 196.655 12.2923Z" fill="#404041"/>
<path d="M46.3065 63.3837L38.0277 53.9319H36.0618V63.3837H29.3013V35.8526H43.1928C46.1721 35.8526 48.5613 36.681 50.3644 38.338C52.1675 39.9949 53.0711 42.166 53.0711 44.8514C53.0711 47.096 52.428 48.9937 51.1459 50.5446C49.8638 52.0913 48.1014 53.1116 45.8587 53.6054L54.4631 63.3837H46.3065ZM42.452 48.2632C43.6527 48.2632 44.6173 47.9612 45.3418 47.3572C46.0663 46.7573 46.4286 45.9451 46.4286 44.933C46.4286 43.9454 46.0663 43.1537 45.3418 42.5497C44.6173 41.9497 43.6527 41.6477 42.452 41.6477H36.0578V48.2632H42.452Z" fill="#404041"/>
<path d="M80.6057 63.3837H59.2129V35.8526H80.4836V41.6885H65.9775V46.8675H79.2951V52.3729H65.9775V57.5518H80.6098V63.3837H80.6057Z" fill="#404041"/>
<path d="M93.6751 47.6062H106.545V53.5238H93.6751V63.3837H86.9146V35.8526H108.145V41.811H93.6792V47.6062H93.6751Z" fill="#404041"/>
<path d="M131.251 63.3837L129.326 58.3721H117.771L115.845 63.3837H108.592L120.066 35.8526H126.994L138.467 63.3837H131.251ZM123.546 43.4965L120.062 52.5361H127.071L123.546 43.4965Z" fill="#404041"/>
<path d="M169.364 53.0708C168.737 56.4663 167.166 59.1394 164.651 61.082C162.14 63.0287 159.091 64 155.513 64C151.443 64 147.992 62.6165 145.167 59.8495C142.338 57.0825 140.926 53.6707 140.926 49.6182C140.926 45.5901 142.338 42.1865 145.167 39.4072C147.996 36.628 151.443 35.2363 155.513 35.2363C158.957 35.2363 161.956 36.1954 164.508 38.1135C167.064 40.0316 168.668 42.5905 169.323 45.7983L162.685 47.3613C162.274 45.4146 161.435 43.9454 160.165 42.9415C158.896 41.9416 157.345 41.4437 155.513 41.4437C153.328 41.4437 151.476 42.2232 149.962 43.7863C148.443 45.3493 147.686 47.2919 147.686 49.6223C147.686 51.9485 148.443 53.9033 149.962 55.4786C151.48 57.054 153.328 57.8416 155.513 57.8416C157.316 57.8416 158.855 57.3274 160.125 56.303C161.395 55.2746 162.262 53.7605 162.726 51.7608L169.364 53.0708Z" fill="#404041"/>
<path d="M196.655 63.3837H175.262V35.8526H196.532V41.6885H182.026V46.8675H195.344V52.3729H182.026V57.5518H196.659V63.3837H196.655Z" fill="#404041"/>
<path d="M6.76056 58.364H0V63.3837H6.76056V58.364Z" fill="#404041"/>
<path d="M20.88 38.4645C19.0647 36.7259 16.6104 35.8526 13.5252 35.8526H0V45.888H6.76056V41.6477H12.7437C14.0258 41.6477 15.0515 41.9987 15.8167 42.6925C16.5819 43.3945 16.9645 44.3005 16.9645 45.4268C16.9645 46.6022 16.59 47.5409 15.837 48.2428C15.0881 48.9407 14.0543 49.2876 12.7437 49.2876H7.92056H6.76056H0V54.9603H6.76056H13.2362C16.4069 54.9603 18.9263 54.0829 20.7986 52.3321C22.6709 50.5813 23.607 48.251 23.607 45.3452C23.607 42.4966 22.6953 40.203 20.88 38.4645Z" fill="#404041"/>
</svg>
