<svg width="25" height="29" viewBox="0 0 25 29" fill="none" xmlns="http://www.w3.org/2000/svg">
<path d="M7.6928 23.3351H0.8125V28.3839H7.6928V23.3351Z" fill="white"/>
<path d="M22.0603 3.32491C20.2122 1.57559 17.7153 0.700012 14.5749 0.700012H0.8125V10.7901H7.69279V6.5256H13.7816C15.0886 6.5256 16.1305 6.87838 16.9092 7.57848C17.6879 8.28406 18.0772 9.19802 18.0772 10.3277C18.0772 11.5122 17.6952 12.4535 16.9311 13.1591C16.167 13.8592 15.1178 14.212 13.7816 14.212H8.87363H7.69279H0.8125V19.9151H7.69279V19.9133H14.2824C17.5069 19.9133 20.0715 19.0304 21.9762 17.2683C23.8809 15.5062 24.8332 13.1628 24.8332 10.2436C24.835 7.37924 23.9101 5.0724 22.0603 3.32491Z" fill="white"/>
</svg>
