<svg width="205" height="30" viewBox="0 0 205 30" fill="none" xmlns="http://www.w3.org/2000/svg">
<g clip-path="url(#clip0)">
<path d="M48.0817 29.3595L39.4845 19.5014H37.4408V29.3595H30.4219V0.644447H44.8476C47.9383 0.644447 50.4201 1.50762 52.2931 3.23786C54.1661 4.9681 55.1007 7.22953 55.1007 10.0339C55.1007 12.3773 54.4337 14.3536 53.0997 15.9706C51.7657 17.5836 49.9354 18.6499 47.6086 19.1616L56.5433 29.3634L48.0817 29.3595ZM44.0798 13.5881C45.3284 13.5881 46.3289 13.2717 47.0812 12.6468C47.8335 12.018 48.2097 11.1743 48.2097 10.1198C48.2097 9.09257 47.8335 8.26064 47.0812 7.63572C46.3289 7.0069 45.3284 6.69444 44.0798 6.69444H37.4408V13.5959L44.0798 13.5881Z" fill="#404041"/>
<path d="M83.6925 29.3595H61.48V0.644447H83.5645V6.72959H68.4989V12.1312H82.3275V17.8727H68.4989V23.2743H83.6886V29.3595H83.6925Z" fill="#404041"/>
<path d="M97.265 12.9007H110.628V19.0717H97.265V29.3595H90.2422V0.644447H112.284V6.85848H97.2611V12.9007H97.265Z" fill="#404041"/>
<path d="M136.284 29.3595L134.283 24.1297H122.281L120.28 29.3595H112.749L124.662 0.644447H131.856L143.768 29.3595H136.284ZM128.284 8.61607L124.666 18.0445H131.941L128.284 8.61607Z" fill="#404041"/>
<path d="M175.854 18.5991C175.203 22.1416 173.57 24.9264 170.96 26.9574C168.35 28.9884 165.186 30 161.471 30C157.244 30 153.661 28.5588 150.725 25.6724C147.79 22.7861 146.32 19.228 146.32 15.002C146.32 10.8033 147.79 7.25296 150.725 4.351C153.665 1.44903 157.244 0 161.471 0C165.046 0 168.16 0.99987 170.813 2.99961C173.465 4.99935 175.133 7.67088 175.811 11.0142L168.916 12.6429C168.49 10.6119 167.617 9.07694 166.299 8.03411C164.98 6.99128 163.371 6.47181 161.471 6.47181C159.202 6.47181 157.279 7.28421 155.705 8.9129C154.13 10.5416 153.343 12.5726 153.343 14.998C153.343 17.4235 154.13 19.4623 155.705 21.1066C157.279 22.747 159.202 23.5711 161.471 23.5711C163.344 23.5711 164.938 23.0361 166.256 21.9659C167.575 20.8918 168.478 19.3139 168.959 17.2282L175.854 18.5991Z" fill="#404041"/>
<path d="M204.193 29.3595H181.981V0.644447H204.065V6.72959H189V12.1312H202.828V17.8727H189V23.2743H204.19V29.3595H204.193Z" fill="#404041"/>
<path d="M7.02284 24.1219H0V29.3595H7.02284V24.1219Z" fill="#404041"/>
<path d="M21.6812 3.36675C19.7966 1.55058 17.2488 0.644447 14.0418 0.644447H0V11.1118H7.02284V6.68663H13.2352C14.5692 6.68663 15.6317 7.05377 16.4267 7.78024C17.2217 8.51061 17.6172 9.45971 17.6172 10.6314C17.6172 11.8578 17.2255 12.8382 16.4461 13.5685C15.6666 14.295 14.5963 14.6622 13.2352 14.6622H8.22886H7.02284L0 14.6582V20.5754H7.02284H13.7471C17.0355 20.5754 19.6531 19.6615 21.5998 17.8336C23.5465 16.0057 24.5159 13.5764 24.5159 10.5494C24.5121 7.56933 23.5659 5.17901 21.6812 3.36675Z" fill="#404041"/>
</g>
<defs>
<clipPath id="clip0">
<rect width="204.194" height="30" fill="white"/>
</clipPath>
</defs>
</svg>
