<svg width="75" height="78" viewBox="0 0 75 78" fill="none" xmlns="http://www.w3.org/2000/svg">
<path d="M10.2703 77.0274H63.7795C70.5976 77.0274 74.0498 73.5752 74.0498 66.8434V32.7528C74.0498 27.7903 73.1005 25.8053 69.7346 23.1729L43.7135 2.97757C41.4697 1.20828 39.4414 0 37.0249 0C34.6084 0 32.5802 1.20828 30.3363 2.97757L4.31523 23.1729C0.949322 25.8053 0 27.7903 0 32.7528V66.8434C0 73.5752 3.45223 77.0274 10.2703 77.0274ZM43.8861 44.6198C41.5991 42.3759 39.3552 41.4697 37.1112 41.4697C34.8673 41.4697 32.6234 42.3759 30.3363 44.6198L28.006 46.9069L7.20647 26.4957L32.8823 6.73181C34.4789 5.4804 35.4714 4.79 37.0249 4.79C38.5784 4.79 39.5709 5.4804 41.1676 6.73181L66.9296 26.5821L46.2164 46.9069L43.8861 44.6198ZM4.57417 66.8002V31.9761C4.57417 31.3288 4.6173 30.7678 4.70364 30.25L24.8559 50.0138L5.00571 69.4757C4.70364 68.6989 4.57417 67.8359 4.57417 66.8002ZM69.4756 31.9761V66.8002C69.4756 67.7496 69.3462 68.6126 69.0873 69.3031L49.3665 50.0138L69.3893 30.3794C69.4325 30.8541 69.4756 31.372 69.4756 31.9761ZM10.1408 72.4532C9.53669 72.4532 8.97576 72.3669 8.45787 72.2806L33.0117 48.1152C34.4358 46.6911 35.8167 46.0439 37.1112 46.0439C38.449 46.0439 39.7867 46.6479 41.2539 48.1152L65.7214 72.2374C65.1604 72.3669 64.5563 72.4532 63.909 72.4532H10.1408Z" fill="#404041"/>
<path d="M35.7236 31.0493H32V33.7369H35.7236V31.0493Z" fill="#404041"/>
<path d="M43.4993 20.3973C42.4991 19.4661 41.1478 19 39.4482 19H32V24.3713H35.7236V22.1011H39.0189C39.7262 22.1011 40.2901 22.2889 40.7115 22.6616C41.1329 23.0372 41.3437 23.5237 41.3437 24.1251C41.3437 24.7556 41.1369 25.2567 40.7234 25.6323C40.3099 26.005 39.742 26.1928 39.0189 26.1928H36.3627H35.7236H32V29.2287H35.7236V29.2278H39.2899C41.035 29.2278 42.4229 28.7578 43.4538 27.8197C44.4846 26.8817 45 25.6343 45 24.0803C45.001 22.5555 44.5004 21.3275 43.4993 20.3973Z" fill="#404041"/>
</svg>
