<svg width="45" height="52" viewBox="0 0 45 52" fill="none" xmlns="http://www.w3.org/2000/svg">
<path d="M13.4147 41.8847H0.758789V51.0193H13.4147V41.8847Z" fill="white"/>
<path d="M39.8429 5.68031C36.4436 2.51528 31.8506 0.931107 26.074 0.931107H0.758789V19.1871H13.4147V11.4713H24.6148C27.0189 11.4713 28.9354 12.1096 30.3678 13.3763C31.8001 14.6529 32.5163 16.3065 32.5163 18.3504C32.5163 20.4935 31.8136 22.1967 30.4081 23.4733C29.0026 24.74 27.0726 25.3782 24.6148 25.3782H15.5868H13.4147H0.758789V35.6968H13.4147V35.6935H25.536C31.4673 35.6935 36.1847 34.0961 39.6882 30.908C43.1918 27.7198 44.9436 23.4799 44.9436 18.1982C44.947 13.0158 43.2456 8.84203 39.8429 5.68031Z" fill="white"/>
</svg>
