<svg width="11" height="12" viewBox="0 0 11 12" fill="none" xmlns="http://www.w3.org/2000/svg">
<path d="M3.72366 9.85526H0.986816V11.8684H3.72366V9.85526Z" fill="#404041"/>
<path d="M9.43419 1.88158C8.69734 1.18421 7.7105 0.828949 6.4605 0.828949H0.999975V4.85527H3.73682V3.1579H6.15787C6.67103 3.1579 7.09208 3.30263 7.39471 3.57895C7.69734 3.85526 7.85524 4.22369 7.85524 4.67105C7.85524 5.14474 7.69734 5.51316 7.39471 5.80263C7.09208 6.07895 6.67103 6.22369 6.14471 6.22369H4.19734H3.72366H0.986816V8.5H3.72366H6.34208C7.61839 8.5 8.64471 8.14474 9.39471 7.44737C10.1447 6.75 10.5263 5.81579 10.5263 4.64474C10.5263 3.5 10.1579 2.57895 9.43419 1.88158Z" fill="#404041"/>
</svg>
