<svg width="85" height="46" viewBox="0 0 85 46" fill="none" xmlns="http://www.w3.org/2000/svg">
<path d="M0.858527 20.5299C-0.196557 21.7607 -0.372392 23.5192 0.858527 24.7061L11.4531 35.3447C12.684 36.5317 14.4864 36.4877 15.6734 35.3007L21.2564 29.6737L29.3013 37.7626C30.4443 38.9055 32.2907 38.8616 33.5216 37.7186L41.1708 30.0694C45.6109 39.7848 53.304 45.236 62.448 45.236C74.9329 45.236 85 35.1249 85 22.596C85 10.0671 74.9769 -4.38124e-07 62.448 -9.8578e-07C53.304 -1.38547e-06 45.1712 5.31927 41.6544 13.6719L8.94736 13.6719C7.89229 13.6719 6.70534 13.9797 5.91404 14.9028L0.858527 20.5299ZM5.69424 22.596L9.69469 18.5955L45.1273 18.5955C47.0616 10.4627 54.0953 4.87964 62.448 4.87964C72.2073 4.87964 80.1203 12.7927 80.1203 22.596C80.1203 32.4433 72.2513 40.3123 62.448 40.3123C54.1833 40.3123 47.0616 34.6853 44.8196 25.6293L38.621 25.6293L31.3675 32.8829L23.8062 25.2337L18.7946 25.2337L13.6072 30.465L5.69424 22.596ZM62.2722 22.596C62.2722 26.025 65.0416 28.7945 68.4706 28.7945C71.8556 28.7945 74.6692 26.025 74.6692 22.596C74.6692 19.167 71.8996 16.4414 68.4706 16.4414C65.0416 16.4414 62.2722 19.211 62.2722 22.596Z" fill="#404041"/>
</svg>
