<svg width="18" height="18" viewBox="0 0 18 18" fill="none" xmlns="http://www.w3.org/2000/svg">
<path d="M7.16475 14.3453C8.68455 14.3453 10.0862 13.8673 11.2513 13.0739L15.432 17.2155C15.6563 17.4377 15.9506 17.5429 16.257 17.5429C16.9156 17.5429 17.4005 17.041 17.4005 16.3981C17.4005 16.0946 17.2943 15.7911 17.07 15.5808L12.9231 11.4607C13.8061 10.2706 14.3247 8.81276 14.3247 7.23546C14.3247 3.32568 11.109 0.140015 7.16236 0.140015C3.22778 0.140015 0 3.31373 0 7.23546C0.00241238 11.1476 3.2181 14.3453 7.16475 14.3453ZM7.16475 12.6078C4.20717 12.6078 1.75863 10.1798 1.75863 7.24025C1.75863 4.3103 4.20959 1.88461 7.16475 1.88461C10.132 1.88461 12.5709 4.31269 12.5709 7.24025C12.5709 10.1798 10.132 12.6078 7.16475 12.6078Z" fill="#CCCCCC"/>
</svg>
