<svg width="51" height="51" viewBox="0 0 51 51" fill="none" xmlns="http://www.w3.org/2000/svg">
<path d="M43.5307 43.5308C53.4889 33.5725 53.4889 17.427 43.5307 7.4687C33.5724 -2.48957 17.4268 -2.48957 7.46855 7.4687C-2.48972 17.427 -2.48972 33.5725 7.46855 43.5308C17.4268 53.4891 33.5724 53.4891 43.5307 43.5308Z" fill="#85BCCE"/>
<path d="M18.2536 39.2514C17.3301 39.2514 16.4447 38.8849 15.7921 38.2323L8.06597 30.5044C6.70685 29.1453 6.70685 26.9415 8.06597 25.5815C9.42508 24.2224 11.6289 24.2224 12.988 25.5815L18.2536 30.8471L35.4236 13.6771C36.7827 12.3179 38.9865 12.3179 40.3465 13.6771C41.7056 15.0362 41.7056 17.24 40.3465 18.5991L20.715 38.2323C20.0625 38.8849 19.1771 39.2514 18.2536 39.2514Z" fill="white"/>
</svg>
