<svg width="87" height="98" viewBox="0 0 87 98" fill="none" xmlns="http://www.w3.org/2000/svg">
<g clip-path="url(#clip0)" filter="url(#filter0_d)">
<path d="M47.5307 82.5308C57.4889 72.5725 57.4889 56.427 47.5307 46.4687C37.5724 36.5104 21.4268 36.5104 11.4686 46.4687C1.51028 56.427 1.51028 72.5725 11.4686 82.5308C21.4268 92.4891 37.5724 92.4891 47.5307 82.5308Z" fill="#85BCCE"/>
<path d="M22.2536 78.2514C21.3301 78.2514 20.4447 77.8849 19.7921 77.2323L12.066 69.5044C10.7069 68.1453 10.7069 65.9415 12.066 64.5815C13.4251 63.2224 15.6289 63.2224 16.988 64.5815L22.2536 69.8471L39.4236 52.6771C40.7827 51.3179 42.9865 51.3179 44.3465 52.6771C45.7056 54.0362 45.7056 56.24 44.3465 57.5991L24.715 77.2323C24.0625 77.8849 23.1771 78.2514 22.2536 78.2514Z" fill="white"/>
</g>
<g clip-path="url(#clip1)" filter="url(#filter1_d)">
<path d="M59.0362 12.8159C59.4873 12.8159 59.8464 12.4579 59.9384 12.008C60.7025 8.01452 60.4816 8.10633 64.7072 7.29845C65.1584 7.20664 65.4714 6.84861 65.4714 6.39876C65.4714 5.94892 65.1584 5.59089 64.6612 5.49908C60.4356 4.6912 60.6565 4.6912 59.9384 0.789518C59.8464 0.358037 59.4873 0 59.0362 0C58.5391 0 58.2721 0.358037 58.134 0.853781C57.2778 4.70956 57.5908 4.70956 53.3652 5.51744C52.9141 5.60925 52.6011 5.96728 52.6011 6.41713C52.6011 6.86697 52.9141 7.225 53.4112 7.31681C57.5908 8.03288 57.2778 8.03288 58.134 11.9805C58.2721 12.4579 58.5391 12.8159 59.0362 12.8159Z" fill="#85BCCE"/>
<path d="M47.7126 29.2305C48.3846 29.2305 48.9278 28.7807 49.0567 28.1105C50.2259 22.0147 49.7748 22.0147 56.2467 20.9406C56.9648 20.8029 57.4159 20.2704 57.4159 19.6003C57.4159 18.976 56.9188 18.3884 56.2467 18.2599C49.7748 17.1858 50.2259 17.1399 49.0567 11.1818C48.9186 10.4657 48.3846 9.96997 47.7126 9.96997C47.0405 9.96997 46.5434 10.4657 46.3685 11.1818C45.1532 17.1032 45.6043 17.1399 39.1784 18.2599C38.4511 18.3793 38 18.9576 38 19.5911C38 20.3071 38.4511 20.8029 39.2613 20.9314C45.5951 21.9596 45.1532 21.9596 46.3592 28.0095C46.5434 28.7348 46.9945 29.2305 47.7126 29.2305Z" fill="#85BCCE"/>
<path d="M63.98 54.9999C64.8822 54.9999 65.5542 54.3757 65.6923 53.476C67.9847 41.2384 69.1999 39.4024 81.3797 37.7866C82.3648 37.6489 83 36.9328 83 35.9964C83 35.0967 82.374 34.3807 81.3797 34.2521C69.292 32.6364 67.5336 30.8921 65.6923 18.6087C65.5542 17.6631 64.8822 16.9929 63.98 16.9929C63.1238 16.9929 62.4057 17.6631 62.2308 18.5628C60.0673 30.837 58.7232 32.6364 46.5894 34.243C45.6044 34.3807 44.9231 35.0967 44.9231 35.9872C44.9231 36.9328 45.5951 37.6489 46.5894 37.7774C58.6404 39.4391 60.3895 41.0916 62.2308 53.4209C62.3597 54.3757 63.0409 54.9999 63.98 54.9999Z" fill="#85BCCE"/>
</g>
<defs>
<filter id="filter0_d" x="0" y="39" width="59" height="59" filterUnits="userSpaceOnUse" color-interpolation-filters="sRGB">
<feFlood flood-opacity="0" result="BackgroundImageFix"/>
<feColorMatrix in="SourceAlpha" type="matrix" values="0 0 0 0 0 0 0 0 0 0 0 0 0 0 0 0 0 0 127 0"/>
<feOffset dy="4"/>
<feGaussianBlur stdDeviation="2"/>
<feColorMatrix type="matrix" values="0 0 0 0 0 0 0 0 0 0 0 0 0 0 0 0 0 0 0.25 0"/>
<feBlend mode="normal" in2="BackgroundImageFix" result="effect1_dropShadow"/>
<feBlend mode="normal" in="SourceGraphic" in2="effect1_dropShadow" result="shape"/>
</filter>
<filter id="filter1_d" x="34" y="0" width="53" height="63" filterUnits="userSpaceOnUse" color-interpolation-filters="sRGB">
<feFlood flood-opacity="0" result="BackgroundImageFix"/>
<feColorMatrix in="SourceAlpha" type="matrix" values="0 0 0 0 0 0 0 0 0 0 0 0 0 0 0 0 0 0 127 0"/>
<feOffset dy="4"/>
<feGaussianBlur stdDeviation="2"/>
<feColorMatrix type="matrix" values="0 0 0 0 0 0 0 0 0 0 0 0 0 0 0 0 0 0 0.25 0"/>
<feBlend mode="normal" in2="BackgroundImageFix" result="effect1_dropShadow"/>
<feBlend mode="normal" in="SourceGraphic" in2="effect1_dropShadow" result="shape"/>
</filter>
<clipPath id="clip0">
<rect width="51" height="51" fill="white" transform="translate(4 39)"/>
</clipPath>
<clipPath id="clip1">
<rect width="45" height="55" fill="white" transform="translate(38)"/>
</clipPath>
</defs>
</svg>
