<svg width="44" height="30" viewBox="0 0 44 30" fill="none" xmlns="http://www.w3.org/2000/svg">
<path d="M0 22.7071C0 23.6015 0.357194 24.147 1.11731 24.5181C3.06341 25.4572 4.1578 26.5706 5.41246 28.9271C5.81541 29.6471 6.41981 29.9959 7.20282 29.9959H36.8063C37.5893 29.9959 38.1938 29.6471 38.5967 28.9271C39.8468 26.5706 40.9458 25.4572 42.8919 24.5181C43.6749 24.147 44.0092 23.6015 44.0092 22.7071V7.2935C44.0092 6.39918 43.6749 5.85365 42.8919 5.48251C40.9458 4.54347 39.8514 3.43005 38.5967 1.07351C38.1938 0.353583 37.5893 0.00479126 36.8063 0.00479126H7.20282C6.41981 0.00479126 5.81541 0.353583 5.41246 1.07351C4.16238 3.43005 3.06341 4.54347 1.11731 5.48251C0.357194 5.85365 0 6.39918 0 7.2935V22.7071ZM3.21908 22.251V7.75409C5.29796 6.92237 6.73123 5.48249 7.82562 3.14832H36.1744C37.2688 5.48249 38.7021 6.92684 40.781 7.75409V22.251C38.7021 23.0827 37.2688 24.5226 36.1744 26.8568H7.82562C6.73123 24.5181 5.29796 23.0783 3.21908 22.251ZM8.09577 22.7071C8.09577 23.6238 8.72309 24.2364 9.6389 24.2364H34.3657C35.3044 24.2364 35.9089 23.6238 35.9089 22.7071V7.2935C35.9089 6.37682 35.3044 5.76422 34.3657 5.76422H9.6389C8.72309 5.76422 8.09577 6.37682 8.09577 7.2935V22.7071ZM10.4631 11.157V8.42928C10.4631 8.18781 10.5547 8.10286 10.7974 8.10286H12.542V11.1615H10.4631V11.157ZM14.914 21.8978V8.09839H29.0907V21.8978H14.914ZM31.458 11.157V8.09839H33.2026C33.4499 8.09839 33.5369 8.18784 33.5369 8.42483V11.1525H31.458V11.157ZM10.4631 16.5274V13.4688H12.542V16.5274H10.4631ZM31.458 16.5274V13.4688H33.5369V16.5274H31.458ZM10.4631 21.5937V18.8437H12.542V21.9022H10.7974C10.5547 21.8978 10.4631 21.8128 10.4631 21.5937ZM31.458 21.8978V18.8392H33.5369V21.5892C33.5369 21.8083 33.4453 21.8933 33.2026 21.8933H31.458V21.8978Z" fill="#85BCCE"/>
</svg>
