<svg width="48" height="59" viewBox="0 0 48 59" fill="none" xmlns="http://www.w3.org/2000/svg">
<path d="M23.9506 58.48C24.4349 58.48 25.1799 58.2937 25.8876 57.884C42.3513 48.4974 47.9014 44.7726 47.9014 34.4175V12.1802C47.9014 9.08863 46.6722 8.0829 44.1021 7.00271C40.3027 5.47549 30.1339 1.75066 26.3345 0.446952C25.5524 0.18621 24.7702 0 23.9506 0C23.1312 0 22.349 0.260741 21.5667 0.446952C17.7675 1.6389 7.59864 5.47549 3.79928 7.00271C1.22917 8.04567 0 9.08863 0 12.1802V34.4175C0 44.7726 5.58724 48.4229 22.0138 57.884C22.7215 58.2937 23.4665 58.48 23.9506 58.48ZM23.9506 53.8612C23.4665 53.8612 22.9822 53.6749 22.2 53.1907C8.67883 44.8843 4.09733 42.4632 4.09733 33.5235V12.9624C4.09733 11.7333 4.32076 11.249 5.25197 10.8765C9.42383 9.23762 18.5124 6.0715 22.6842 4.46982C23.1685 4.24631 23.6155 4.13455 23.9506 4.13455C24.2859 4.13455 24.7329 4.24631 25.2171 4.46982C29.389 6.0715 38.4031 9.3866 42.6494 10.8765C43.5806 11.249 43.804 11.7333 43.804 12.9624V33.5235C43.804 42.4632 39.1852 44.8471 25.7014 53.1907C24.9192 53.6749 24.4349 53.8612 23.9506 53.8612ZM20.7846 41.681C21.6413 41.681 22.349 41.2712 22.8332 40.489L36.6151 18.885C36.9131 18.4007 37.2111 17.842 37.2111 17.2833C37.2111 16.1286 36.2054 15.3463 35.1252 15.3463C34.4547 15.3463 33.8215 15.7561 33.3372 16.5383L20.6728 36.6897L14.4151 28.793C13.8191 28.0108 13.2231 27.7873 12.5154 27.7873C11.398 27.7873 10.5412 28.6813 10.5412 29.8359C10.5412 30.3947 10.7648 30.9534 11.1373 31.4376L18.5869 40.489C19.2574 41.3085 19.9278 41.681 20.7846 41.681Z" fill="#404041"/>
</svg>
