<svg width="29" height="27" viewBox="0 0 29 27" fill="none" xmlns="http://www.w3.org/2000/svg">
<path d="M4.78073 26.1625H23.9225C26.7395 26.1625 28.1589 24.732 28.1589 21.9118V4.55678C28.1589 1.73284 26.7395 0.287506 23.9225 0.287506H4.78073C1.98189 0.287506 0.5625 1.71801 0.5625 4.55678V21.9118C0.5625 24.7357 1.98189 26.1625 4.78073 26.1625ZM4.62098 24.1539C3.27419 24.1539 2.53005 23.4312 2.53005 22.0007V8.84457C2.53005 7.41407 3.27419 6.69141 4.62098 6.69141H24.0822C25.4109 6.69141 26.1732 7.41407 26.1732 8.84457V22.0007C26.1732 23.4312 25.4109 24.1539 24.0822 24.1539H4.62098ZM11.6235 11.7426H12.4403C12.9014 11.7426 13.0429 11.6166 13.0429 11.146V10.3121C13.0429 9.85999 12.9014 9.71547 12.4403 9.71547H11.6235C11.1625 9.71547 11.0209 9.85999 11.0209 10.3121V11.146C11.0209 11.6166 11.1625 11.7426 11.6235 11.7426ZM16.2846 11.7426H17.1014C17.5625 11.7426 17.704 11.6166 17.704 11.146V10.3121C17.704 9.85999 17.5625 9.71547 17.1014 9.71547H16.2846C15.8236 9.71547 15.6821 9.85999 15.6821 10.3121V11.146C15.6821 11.6166 15.8236 11.7426 16.2846 11.7426ZM20.9458 11.7426H21.7626C22.2236 11.7426 22.3651 11.6166 22.3651 11.146V10.3121C22.3651 9.85999 22.2236 9.71547 21.7626 9.71547H20.9458C20.4847 9.71547 20.3432 9.85999 20.3432 10.3121V11.146C20.3432 11.6166 20.4847 11.7426 20.9458 11.7426ZM6.96245 16.427H7.77923C8.24026 16.427 8.38185 16.301 8.38185 15.8303V14.9965C8.38185 14.5443 8.24026 14.3998 7.77923 14.3998H6.96245C6.50142 14.3998 6.35983 14.5443 6.35983 14.9965V15.8303C6.35983 16.301 6.50142 16.427 6.96245 16.427ZM11.6235 16.427H12.4403C12.9014 16.427 13.0429 16.301 13.0429 15.8303V14.9965C13.0429 14.5443 12.9014 14.3998 12.4403 14.3998H11.6235C11.1625 14.3998 11.0209 14.5443 11.0209 14.9965V15.8303C11.0209 16.301 11.1625 16.427 11.6235 16.427ZM16.2846 16.427H17.1014C17.5625 16.427 17.704 16.301 17.704 15.8303V14.9965C17.704 14.5443 17.5625 14.3998 17.1014 14.3998H16.2846C15.8236 14.3998 15.6821 14.5443 15.6821 14.9965V15.8303C15.6821 16.301 15.8236 16.427 16.2846 16.427ZM20.9458 16.427H21.7626C22.2236 16.427 22.3651 16.301 22.3651 15.8303V14.9965C22.3651 14.5443 22.2236 14.3998 21.7626 14.3998H20.9458C20.4847 14.3998 20.3432 14.5443 20.3432 14.9965V15.8303C20.3432 16.301 20.4847 16.427 20.9458 16.427ZM6.96245 21.115H7.77923C8.24026 21.115 8.38185 20.989 8.38185 20.5183V19.6845C8.38185 19.2324 8.24026 19.1064 7.77923 19.1064H6.96245C6.50142 19.1064 6.35983 19.2324 6.35983 19.6845V20.5183C6.35983 20.989 6.50142 21.115 6.96245 21.115ZM11.6235 21.115H12.4403C12.9014 21.115 13.0429 20.989 13.0429 20.5183V19.6845C13.0429 19.2324 12.9014 19.1064 12.4403 19.1064H11.6235C11.1625 19.1064 11.0209 19.2324 11.0209 19.6845V20.5183C11.0209 20.989 11.1625 21.115 11.6235 21.115ZM16.2846 21.115H17.1014C17.5625 21.115 17.704 20.989 17.704 20.5183V19.6845C17.704 19.2324 17.5625 19.1064 17.1014 19.1064H16.2846C15.8236 19.1064 15.6821 19.2324 15.6821 19.6845V20.5183C15.6821 20.989 15.8236 21.115 16.2846 21.115Z" fill="#C4C4C4"/>
</svg>
