<svg width="24" height="27" viewBox="0 0 24 27" fill="none" xmlns="http://www.w3.org/2000/svg">
<path d="M2.09499 21.7284H14.8392C14.7446 23.4849 13.6451 24.5975 12.1312 24.5975C10.6009 24.5975 9.50137 23.4849 9.40676 21.7284H7.68733C7.78195 24.132 9.58298 26.1625 12.1312 26.1625C14.6631 26.1625 16.4641 24.132 16.5587 21.7284H22.151C23.1853 21.7284 23.8085 21.1803 23.8085 20.3582C23.8085 19.0838 22.5654 17.9711 21.4985 16.8453C20.5914 15.8449 20.4152 13.8143 20.2717 12.0909C20.1118 7.44878 18.8524 4.36834 15.619 3.23918C15.221 1.57845 13.9159 0.287506 12.1312 0.287506C10.3301 0.287506 9.02503 1.57845 8.64329 3.23918C5.3936 4.36834 4.13421 7.44547 3.97433 12.0909C3.83077 13.8143 3.65458 15.8482 2.74754 16.8453C1.68063 17.9744 0.4375 19.0871 0.4375 20.3582C0.4375 21.1803 1.05745 21.7284 2.09499 21.7284ZM2.57134 20.0512V19.8894C2.74753 19.4536 3.54362 18.6315 4.2288 17.8754C5.24677 16.7462 5.55023 14.8114 5.72642 12.2494C5.90261 7.15492 7.4165 5.36544 9.58296 4.76784C9.91902 4.6886 10.1083 4.52682 10.1246 4.18675C10.2029 2.8793 10.937 1.94494 12.1312 1.94494C13.309 1.94494 14.0431 2.8793 14.1214 4.18675C14.1377 4.52682 14.327 4.6853 14.6631 4.76784C16.8295 5.36544 18.3434 7.15492 18.5196 12.2494C18.6958 14.8114 18.9959 16.7462 20.0172 17.8754C20.7024 18.6315 21.4985 19.4569 21.6747 19.8894V20.0512H2.57134Z" fill="#86BCCD"/>
</svg>
